<?xml version="1.0" encoding="UTF-8"?>
<svg version="1.1" xmlns="http://www.w3.org/2000/svg" width="800" height="800">
<path d="M0 0 C128.04 0 256.08 0 388 0 C386.78925095 8.47524334 385.55817557 16.8873315 384.04467773 25.30395508 C383.86067413 26.33827164 383.67667053 27.3725882 383.48709106 28.43824768 C382.88844601 31.79913109 382.28622557 35.15936059 381.68359375 38.51953125 C381.26276363 40.8736547 380.84203472 43.22779624 380.42140198 45.58195496 C379.54475004 50.4847098 378.66618697 55.38711758 377.78637695 60.28930664 C376.65659003 66.58580956 375.53273035 72.88335473 374.41038418 79.18118763 C373.54584651 84.02761271 372.67768649 88.87338354 371.80845833 93.71896935 C371.39214225 96.04289089 370.97709512 98.36704011 370.56332207 100.69141579 C369.98795767 103.92102446 369.40761103 107.14969817 368.82592773 110.37817383 C368.65500107 111.34376221 368.4840744 112.30935059 368.30796814 113.30419922 C368.14961487 114.17724197 367.9912616 115.05028473 367.82810974 115.94978333 C367.62322009 117.09364612 367.62322009 117.09364612 367.41419125 118.26061726 C367 120 367 120 366 121 C362.81448052 121.09808708 359.65062218 121.12990073 356.46470642 121.12025452 C355.45113101 121.12110894 354.4375556 121.12196337 353.39326578 121.12284368 C349.96910954 121.12450154 346.5450014 121.11897214 343.12084961 121.11352539 C340.67738343 121.11324356 338.23391718 121.11340117 335.79045105 121.1139679 C330.51552134 121.11419622 325.24060683 121.11134483 319.96568108 121.10573006 C312.33894208 121.09761721 304.71220906 121.09500006 297.08546621 121.09374207 C284.71281719 121.09155121 272.34017475 121.0848902 259.9675293 121.07543945 C247.94571974 121.06626621 235.92391196 121.05918495 223.90209961 121.05493164 C222.79133134 121.05453756 222.79133134 121.05453756 221.65812331 121.05413551 C217.94334428 121.05283051 214.22856524 121.05156679 210.5137862 121.05032361 C179.67585268 121.03994993 148.83792734 121.02225658 118 121 C117.67 124.63 117.34 128.26 117 132 C111.39 164.34 105.78 196.68 100 230 C167.32 230.33 234.64 230.66 304 231 C302.87494921 241.12545708 302.87494921 241.12545708 302.16516113 245.24485779 C302.0053627 246.17989639 301.84556427 247.114935 301.68092346 248.07830811 C301.50842575 249.07138977 301.33592804 250.06447144 301.15820312 251.08764648 C300.88241676 252.69413811 300.88241676 252.69413811 300.60105896 254.33308411 C299.99717579 257.84622855 299.38937235 261.35868081 298.78125 264.87109375 C298.35894679 267.31964182 297.93678912 269.768215 297.51477051 272.21681213 C296.6322324 277.33357142 295.74770763 282.44998234 294.86181641 287.56616211 C293.95124574 292.8257929 293.0432423 298.08585369 292.13818359 303.34643555 C291.04417179 309.70502034 289.94708136 316.06306532 288.84739685 322.42067146 C288.42858384 324.84430434 288.01074594 327.26810593 287.59388733 329.69207573 C287.01290348 333.06795783 286.42789521 336.44311788 285.84179688 339.81811523 C285.66929916 340.82536652 285.49680145 341.8326178 285.31907654 342.87039185 C285.07937889 344.2433416 285.07937889 344.2433416 284.83483887 345.64402771 C284.69694695 346.44167258 284.55905502 347.23931746 284.41698456 348.06113338 C284 350 284 350 283 352 C215.35 352 147.7 352 78 352 C77.67 355.63 77.34 359.26 77 363 C76.57990313 365.83984536 76.13623557 368.65379066 75.63366699 371.4777832 C75.49876091 372.25685658 75.36385482 373.03592995 75.22486067 373.8386116 C74.7784726 376.41008933 74.32579062 378.98041556 73.87304688 381.55078125 C73.54902654 383.40951594 73.22539309 385.2683181 72.90211487 387.12718201 C72.02812005 392.14588701 71.14858038 397.16360546 70.26787758 402.18113708 C69.34585135 407.43892934 68.42855228 412.69754643 67.51062012 417.95605469 C65.97025634 426.77608948 64.42643309 435.59551314 62.88037109 444.41455078 C61.09209371 454.61539229 59.3085803 464.8170576 57.52775335 475.01920223 C55.81339217 484.84029158 54.09639699 494.66091839 52.37794495 504.48129272 C51.64677033 508.65973291 50.91639431 512.83831153 50.18663025 517.01699829 C49.32861486 521.9290586 48.46825689 526.84070297 47.60606194 531.75203133 C47.2896176 533.55670421 46.97396034 535.36151531 46.65913582 537.16647148 C46.23033733 539.62405665 45.79871149 542.08112849 45.36633301 544.53808594 C45.24152668 545.25723332 45.11672034 545.97638071 44.988132 546.71732044 C44.48308112 549.57219097 43.91865604 552.24403187 43 555 C-3.2 555 -49.4 555 -97 555 C-95.87501133 542.6251246 -95.87501133 542.6251246 -94.97012329 537.52267456 C-94.76490649 536.35244782 -94.55968969 535.18222109 -94.3482542 533.97653294 C-94.12327661 532.72083468 -93.89829901 531.46513643 -93.66650391 530.17138672 C-93.4224851 528.790126 -93.17887372 527.40879326 -92.93562794 526.0273962 C-92.40479505 523.01812543 -91.87101992 520.0093964 -91.33498955 517.00104713 C-90.44578933 512.01058269 -89.56311286 507.01897525 -88.68092346 502.02726746 C-87.36790721 494.60190525 -86.05161788 487.17712913 -84.73324585 479.75271606 C-82.58868215 467.67509017 -80.45072711 455.59629902 -78.3137207 443.51733398 C-77.55260177 439.21567675 -76.79143887 434.91402729 -76.03025818 430.61238098 C-75.83703981 429.52042535 -75.64382145 428.42846973 -75.44474798 427.30342454 C-74.02277235 419.26776256 -72.59986818 411.23226529 -71.176651 403.19682312 C-64.20456498 363.83040049 -57.25250491 324.46045922 -50.30614436 285.08949029 C-49.87906404 282.66886306 -49.45197768 280.2482369 -49.02488995 277.82761097 C-46.45302467 263.25088139 -43.88130421 248.67412626 -41.30978394 234.09733582 C-37.38056046 211.82437021 -33.4506076 189.55153342 -29.52001953 167.27880859 C-29.38488917 166.51308909 -29.2497588 165.74736958 -29.11053358 164.95844646 C-27.77120728 157.36912531 -26.43186751 149.77980653 -25.09251609 142.19048982 C-23.08544224 130.81757932 -21.07844892 119.4446546 -19.07147312 108.0717268 C-12.71434491 72.04781266 -6.35716032 36.02390847 0 0 Z " fill="#44FF52" transform="translate(254,122)"/>
</svg>
